<svg version="1.1" preserveAspectRatio="none" xmlns="http://www.w3.org/2000/svg" width="500" height="500" viewBox="0 0 500 500"><rect width="100%" height="100%" fill="#0F222D" fill-opacity="1"/><svg viewBox="386.0726 326.5478 615.7193 329.2304" width="333" height="178.05796115210293" x="83.5px" y="160.971px" xmlns="http://www.w3.org/2000/svg" xmlns:xlink="http://www.w3.org/1999/xlink" preserveAspectRatio="none"><defs></defs><style>.aDFQBjvS2colors-3 {fill:#21303A;fill-opacity:1;}.aDFQBjvS2colors-4 {fill:#51819E;fill-opacity:1;}.aDFQBjvS2colors-5 {fill:#064B75;fill-opacity:1;}.aDFQBjvS2colors-6 {fill:#ACA58C;fill-opacity:1;}.aDFQBjvS2colors-7 {fill:#3E5563;fill-opacity:1;}.companyName {fill:#EBE7D9;fill-opacity:1;}.icon1 {fill:#FFF5D0;fill-opacity:1;}.icon2 {fill:#BA3521;fill-opacity:1;}.icon3 {fill:#F55139;fill-opacity:1;}.icon3-str {stroke:#F55139;stroke-opacity:1;}.text {fill:#EBE7D9;fill-opacity:1;}</style><g opacity="1" transform="rotate(0 386.0726 631.7782)">
<svg width="615.7193" height="24" x="386.0726" y="631.7782" version="1.1" preserveAspectRatio="none" viewBox="4.16 -31 1006.5600000000001 39.24">
  <g transform="matrix(1 0 0 1 0 0)" class="text"><path id="id-6izo4zJp50" d="M4.16-28.92L21.32-28.92L21.32-25.20L8.04-25.20L8.04-16L19.68-16L19.68-12.28L8.04-12.28L8.04 0L4.16 0L4.16-28.92Z M25.60-8.44Q25.60-10.88 26.78-12.90Q27.96-14.92 30.06-16.08Q32.16-17.24 34.80-17.24L34.80-17.24Q37.44-17.24 39.50-16.08Q41.56-14.92 42.70-12.92Q43.84-10.92 43.84-8.44L43.84-8.44Q43.84-5.96 42.70-3.94Q41.56-1.92 39.48-0.76Q37.40 0.40 34.72 0.40L34.72 0.40Q32.12 0.40 30.04-0.70Q27.96-1.80 26.78-3.80Q25.60-5.80 25.60-8.44L25.60-8.44ZM29.36-8.40Q29.36-6.84 30.06-5.52Q30.76-4.20 31.98-3.44Q33.20-2.68 34.68-2.68L34.68-2.68Q37-2.68 38.52-4.32Q40.04-5.96 40.04-8.40L40.04-8.40Q40.04-10.84 38.52-12.50Q37-14.16 34.68-14.16L34.68-14.16Q33.16-14.16 31.96-13.38Q30.76-12.60 30.06-11.28Q29.36-9.96 29.36-8.40L29.36-8.40Z M54.84-12.64Q55.48-14 56.66-15.04Q57.84-16.08 59.16-16.64Q60.48-17.20 61.48-17.24L61.48-17.24L61.32-13.52Q59.52-13.60 58.06-12.80Q56.60-12 55.78-10.58Q54.96-9.16 54.96-7.56L54.96-7.56L54.96 0L51.24 0L51.24-16.56L54.56-16.56L54.84-12.64Z M89.92-17.24Q92.32-17.24 93.74-15.88Q95.16-14.52 95.24-12.28L95.24-12.28L95.24 0L91.52 0L91.52-10.92Q91.40-13.84 88.88-14L88.88-14Q87.44-14 86.30-13.14Q85.16-12.28 84.52-10.88Q83.88-9.48 83.84-7.88L83.84-7.88L83.84 0L80.08 0L80.08-10.92Q79.96-13.84 77.36-14L77.36-14Q75.96-14 74.82-13.14Q73.68-12.28 73.04-10.86Q72.40-9.44 72.40-7.84L72.40-7.84L72.40 0L68.68 0L68.68-16.56L72.04-16.56L72.32-13.44Q73.28-15.24 74.94-16.24Q76.60-17.24 78.72-17.24L78.72-17.24Q80.72-17.24 82.08-16.30Q83.44-15.36 83.84-13.72L83.84-13.72Q84.88-15.36 86.48-16.30Q88.08-17.24 89.92-17.24L89.92-17.24Z M117.64-16.56L121.08-16.56L121.08 0L117.36 0L117.36-2.72Q116.48-1.56 114.80-0.58Q113.12 0.40 111 0.40L111 0.40Q108.64 0.40 106.74-0.62Q104.84-1.64 103.74-3.60Q102.64-5.56 102.64-8.28L102.64-8.28Q102.64-11 103.78-13.02Q104.92-15.04 106.86-16.14Q108.80-17.24 111.16-17.24L111.16-17.24Q113.28-17.24 114.84-16.32Q116.40-15.40 117.36-13.92L117.36-13.92L117.64-16.56ZM112-2.68Q114.04-2.68 115.50-3.82Q116.96-4.96 117.36-6.92L117.36-6.92L117.36-10.20Q116.88-11.96 115.36-13.06Q113.84-14.16 111.88-14.16L111.88-14.16Q110.40-14.16 109.14-13.44Q107.88-12.72 107.14-11.42Q106.40-10.12 106.40-8.48L106.40-8.48Q106.40-6.88 107.16-5.56Q107.92-4.24 109.20-3.46Q110.48-2.68 112-2.68L112-2.68Z M129.96-31L133.68-31L133.68 0L129.96 0L129.96-31Z M165.36-2.80Q167.44-2.80 169.40-4.24L169.40-4.24L171.12-1.48Q169.80-0.60 168.26-0.10Q166.72 0.40 165.28 0.40L165.28 0.40Q162.52 0.40 160.46-0.74Q158.40-1.88 157.28-3.88Q156.16-5.88 156.16-8.40L156.16-8.40Q156.16-10.84 157.38-12.86Q158.60-14.88 160.72-16.06Q162.84-17.24 165.36-17.24L165.36-17.24Q168.60-17.24 170.78-15.34Q172.96-13.44 173.76-10.04L173.76-10.04L160.64-5.44Q161.36-4.20 162.58-3.50Q163.80-2.80 165.36-2.80L165.36-2.80ZM165.08-14.28Q162.80-14.28 161.32-12.68Q159.84-11.08 159.84-8.60L159.84-8.60Q159.84-8 159.88-7.68L159.88-7.68L169.52-11.24Q168.92-12.60 167.82-13.44Q166.72-14.28 165.08-14.28L165.08-14.28Z M194.36-31L198.08-31L198.08 0L194.32 0L194.32-2.60Q193.12-1.20 191.38-0.40Q189.64 0.40 187.56 0.40L187.56 0.40Q185.24 0.40 183.36-0.72Q181.48-1.84 180.42-3.86Q179.36-5.88 179.36-8.52L179.36-8.52Q179.36-11.20 180.48-13.18Q181.60-15.16 183.56-16.20Q185.52-17.24 188.00-17.24L188.00-17.24Q189.88-17.24 191.62-16.46Q193.36-15.68 194.36-14.32L194.36-14.32L194.36-31ZM188.72-2.80Q190.88-2.80 192.38-3.96Q193.88-5.12 194.32-7.08L194.32-7.08L194.32-10.20Q193.84-12 192.28-13.14Q190.72-14.28 188.72-14.28L188.72-14.28Q187.20-14.28 185.92-13.54Q184.64-12.80 183.88-11.50Q183.12-10.20 183.12-8.56L183.12-8.56Q183.12-6.96 183.88-5.64Q184.64-4.32 185.92-3.56Q187.20-2.80 188.72-2.80L188.72-2.80Z M218.60-16.56L222.32-16.56L222.32 0L218.96 0L218.72-3.16Q217.88-1.48 216.12-0.42Q214.36 0.64 212.20 0.64L212.20 0.64Q209.92 0.64 208.46-0.74Q207.00-2.12 206.92-4.32L206.92-4.32L206.92-16.56L210.64-16.56L210.64-5.64Q210.72-4.24 211.46-3.42Q212.20-2.60 213.68-2.56L213.68-2.56Q215.04-2.56 216.16-3.38Q217.28-4.20 217.94-5.64Q218.60-7.08 218.60-8.84L218.60-8.84L218.60-16.56Z M244.64-1.56Q243.52-0.64 241.98-0.12Q240.44 0.40 238.84 0.40L238.84 0.40Q236.16 0.40 234.10-0.68Q232.04-1.76 230.90-3.74Q229.76-5.72 229.76-8.32L229.76-8.32Q229.76-10.88 230.96-12.86Q232.16-14.84 234.16-15.92Q236.16-17 238.48-17L238.48-17Q242.28-17 244.76-14.92L244.76-14.92L242.88-12.48Q242.08-13.08 241.04-13.50Q240.00-13.92 238.80-13.92L238.80-13.92Q237.32-13.92 236.10-13.18Q234.88-12.44 234.18-11.16Q233.48-9.88 233.48-8.32L233.48-8.32Q233.48-6.76 234.22-5.48Q234.96-4.20 236.24-3.44Q237.52-2.68 239.16-2.68L239.16-2.68Q241.20-2.68 242.72-3.88L242.72-3.88L244.64-1.56Z M265.40-16.56L268.84-16.56L268.84 0L265.12 0L265.12-2.72Q264.24-1.56 262.56-0.58Q260.88 0.40 258.76 0.40L258.76 0.40Q256.40 0.40 254.50-0.62Q252.60-1.64 251.50-3.60Q250.40-5.56 250.40-8.28L250.40-8.28Q250.40-11 251.54-13.02Q252.68-15.04 254.62-16.14Q256.56-17.24 258.92-17.24L258.92-17.24Q261.04-17.24 262.60-16.32Q264.16-15.40 265.12-13.92L265.12-13.92L265.40-16.56ZM259.76-2.68Q261.80-2.68 263.26-3.82Q264.72-4.96 265.12-6.92L265.12-6.92L265.12-10.20Q264.64-11.96 263.12-13.06Q261.60-14.16 259.64-14.16L259.64-14.16Q258.16-14.16 256.90-13.44Q255.64-12.72 254.90-11.42Q254.16-10.12 254.16-8.48L254.16-8.48Q254.16-6.88 254.92-5.56Q255.68-4.24 256.96-3.46Q258.24-2.68 259.76-2.68L259.76-2.68Z M279.32-23.84L283.08-23.84L283.08-16.52L287.60-16.52L287.60-13.56L283.08-13.56L283.08 0L279.32 0L279.32-13.56L276.28-13.56L276.28-16.52L279.32-16.52L279.32-23.84Z M294.52-16.56L298.24-16.56L298.24 0L294.52 0L294.52-16.56ZM294.24-22.52Q294.24-23.40 294.92-24Q295.60-24.60 296.48-24.60L296.48-24.60Q297.36-24.60 298.02-24Q298.68-23.40 298.68-22.52L298.68-22.52Q298.68-21.64 298.02-21.04Q297.36-20.44 296.48-20.44L296.48-20.44Q295.60-20.44 294.92-21.04Q294.24-21.64 294.24-22.52L294.24-22.52Z M305.68-8.44Q305.68-10.88 306.86-12.90Q308.04-14.92 310.14-16.08Q312.24-17.24 314.88-17.24L314.88-17.24Q317.52-17.24 319.58-16.08Q321.64-14.92 322.78-12.92Q323.92-10.92 323.92-8.44L323.92-8.44Q323.92-5.96 322.78-3.94Q321.64-1.92 319.56-0.76Q317.48 0.40 314.80 0.40L314.80 0.40Q312.20 0.40 310.12-0.70Q308.04-1.80 306.86-3.80Q305.68-5.80 305.68-8.44L305.68-8.44ZM309.44-8.40Q309.44-6.84 310.14-5.52Q310.84-4.20 312.06-3.44Q313.28-2.68 314.76-2.68L314.76-2.68Q317.08-2.68 318.60-4.32Q320.12-5.96 320.12-8.40L320.12-8.40Q320.12-10.84 318.60-12.50Q317.08-14.16 314.76-14.16L314.76-14.16Q313.24-14.16 312.04-13.38Q310.84-12.60 310.14-11.28Q309.44-9.96 309.44-8.40L309.44-8.40Z M341.60-17.20Q343.92-17.20 345.44-15.82Q346.96-14.44 347-12.24L347-12.24L347 0L343.24 0L343.24-10.96Q343.16-12.36 342.40-13.16Q341.64-13.96 340.12-14L340.12-14Q337.92-14 336.48-12.24Q335.04-10.48 335.04-7.76L335.04-7.76L335.04 0L331.32 0L331.32-16.56L334.68-16.56L334.92-13.36Q335.80-15.16 337.56-16.18Q339.32-17.20 341.60-17.20L341.60-17.20Z M390.20-16.56L393.88-16.56L386.24 1L380.92-10.36L376.08 1L368.40-16.56L372.08-16.56L376.52-6.52L379.60-13.72L378.28-16.56L381.52-16.56L386.00-6.28L390.20-16.56Z M400.28-16.56L404.00-16.56L404.00 0L400.28 0L400.28-16.56ZM400.00-22.52Q400.00-23.40 400.68-24Q401.36-24.60 402.24-24.60L402.24-24.60Q403.12-24.60 403.78-24Q404.44-23.40 404.44-22.52L404.44-22.52Q404.44-21.64 403.78-21.04Q403.12-20.44 402.24-20.44L402.24-20.44Q401.36-20.44 400.68-21.04Q400.00-21.64 400.00-22.52L400.00-22.52Z M412.88-31L416.60-31L416.60 0L412.88 0L412.88-31Z M425.48-31L429.20-31L429.20 0L425.48 0L425.48-31Z M474.36-17.24Q476.76-17.24 478.18-15.88Q479.60-14.52 479.68-12.28L479.68-12.28L479.68 0L475.96 0L475.96-10.92Q475.84-13.84 473.32-14L473.32-14Q471.88-14 470.74-13.14Q469.60-12.28 468.96-10.88Q468.32-9.48 468.28-7.88L468.28-7.88L468.28 0L464.52 0L464.52-10.92Q464.40-13.84 461.80-14L461.80-14Q460.40-14 459.26-13.14Q458.12-12.28 457.48-10.86Q456.84-9.44 456.84-7.84L456.84-7.84L456.84 0L453.12 0L453.12-16.56L456.48-16.56L456.76-13.44Q457.72-15.24 459.38-16.24Q461.04-17.24 463.16-17.24L463.16-17.24Q465.16-17.24 466.52-16.30Q467.88-15.36 468.28-13.72L468.28-13.72Q469.32-15.36 470.92-16.30Q472.52-17.24 474.36-17.24L474.36-17.24Z M502.08-16.56L505.52-16.56L505.52 0L501.80 0L501.80-2.72Q500.92-1.56 499.24-0.58Q497.56 0.40 495.44 0.40L495.44 0.40Q493.08 0.40 491.18-0.62Q489.28-1.64 488.18-3.60Q487.08-5.56 487.08-8.28L487.08-8.28Q487.08-11 488.22-13.02Q489.36-15.04 491.30-16.14Q493.24-17.24 495.60-17.24L495.60-17.24Q497.72-17.24 499.28-16.32Q500.84-15.40 501.80-13.92L501.80-13.92L502.08-16.56ZM496.44-2.68Q498.48-2.68 499.94-3.82Q501.40-4.96 501.80-6.92L501.80-6.92L501.80-10.20Q501.32-11.96 499.80-13.06Q498.28-14.16 496.32-14.16L496.32-14.16Q494.84-14.16 493.58-13.44Q492.32-12.72 491.58-11.42Q490.84-10.12 490.84-8.48L490.84-8.48Q490.84-6.88 491.60-5.56Q492.36-4.24 493.64-3.46Q494.92-2.68 496.44-2.68L496.44-2.68Z M525.40 0L520.28-7.96L518.12-6.20L518.12 0L514.40 0L514.40-31L518.12-31L518.12-10.08L526.68-16.96L528.96-14.96L522.84-10.04L529.76 0L525.40 0Z M543.88-2.80Q545.96-2.80 547.92-4.24L547.92-4.24L549.64-1.48Q548.32-0.60 546.78-0.10Q545.24 0.40 543.80 0.40L543.80 0.40Q541.04 0.40 538.98-0.74Q536.92-1.88 535.80-3.88Q534.68-5.88 534.68-8.40L534.68-8.40Q534.68-10.84 535.90-12.86Q537.12-14.88 539.24-16.06Q541.36-17.24 543.88-17.24L543.88-17.24Q547.12-17.24 549.30-15.34Q551.48-13.44 552.28-10.04L552.28-10.04L539.16-5.44Q539.88-4.20 541.10-3.50Q542.32-2.80 543.88-2.80L543.88-2.80ZM543.60-14.28Q541.32-14.28 539.84-12.68Q538.36-11.08 538.36-8.60L538.36-8.60Q538.36-8 538.40-7.68L538.40-7.68L548.04-11.24Q547.44-12.60 546.34-13.44Q545.24-14.28 543.60-14.28L543.60-14.28Z M586.68-16.56L590.12-16.56L579.44 7.96L575.76 7.96L579.56-0.56L571.88-16.56L576.08-16.56L581.44-4.76L586.68-16.56Z M594.56-8.44Q594.56-10.88 595.74-12.90Q596.92-14.92 599.02-16.08Q601.12-17.24 603.76-17.24L603.76-17.24Q606.40-17.24 608.46-16.08Q610.52-14.92 611.66-12.92Q612.80-10.92 612.80-8.44L612.80-8.44Q612.80-5.96 611.66-3.94Q610.52-1.92 608.44-0.76Q606.36 0.40 603.68 0.40L603.68 0.40Q601.08 0.40 599.00-0.70Q596.92-1.80 595.74-3.80Q594.56-5.80 594.56-8.44L594.56-8.44ZM598.32-8.40Q598.32-6.84 599.02-5.52Q599.72-4.20 600.94-3.44Q602.16-2.68 603.64-2.68L603.64-2.68Q605.96-2.68 607.48-4.32Q609.00-5.96 609.00-8.40L609.00-8.40Q609.00-10.84 607.48-12.50Q605.96-14.16 603.64-14.16L603.64-14.16Q602.12-14.16 600.92-13.38Q599.72-12.60 599.02-11.28Q598.32-9.96 598.32-8.40L598.32-8.40Z M631.88-16.56L635.60-16.56L635.60 0L632.24 0L632.00-3.16Q631.16-1.48 629.40-0.42Q627.64 0.64 625.48 0.64L625.48 0.64Q623.20 0.64 621.74-0.74Q620.28-2.12 620.20-4.32L620.20-4.32L620.20-16.56L623.92-16.56L623.92-5.64Q624.00-4.24 624.74-3.42Q625.48-2.60 626.96-2.56L626.96-2.56Q628.32-2.56 629.44-3.38Q630.56-4.20 631.22-5.64Q631.88-7.08 631.88-8.84L631.88-8.84L631.88-16.56Z M673.08-16.56L676.52-16.56L676.52 0L672.80 0L672.80-2.72Q671.92-1.56 670.24-0.58Q668.56 0.40 666.44 0.40L666.44 0.40Q664.08 0.40 662.18-0.62Q660.28-1.64 659.18-3.60Q658.08-5.56 658.08-8.28L658.08-8.28Q658.08-11 659.22-13.02Q660.36-15.04 662.30-16.14Q664.24-17.24 666.60-17.24L666.60-17.24Q668.72-17.24 670.28-16.32Q671.84-15.40 672.80-13.92L672.80-13.92L673.08-16.56ZM667.44-2.68Q669.48-2.68 670.94-3.82Q672.40-4.96 672.80-6.92L672.80-6.92L672.80-10.20Q672.32-11.96 670.80-13.06Q669.28-14.16 667.32-14.16L667.32-14.16Q665.84-14.16 664.58-13.44Q663.32-12.72 662.58-11.42Q661.84-10.12 661.84-8.48L661.84-8.48Q661.84-6.88 662.60-5.56Q663.36-4.24 664.64-3.46Q665.92-2.68 667.44-2.68L667.44-2.68Z M700.44-31L704.16-31L704.16 0L700.44 0L700.44-31Z M713.04-16.56L716.76-16.56L716.76 0L713.04 0L713.04-16.56ZM712.76-22.52Q712.76-23.40 713.44-24Q714.12-24.60 715.00-24.60L715.00-24.60Q715.88-24.60 716.54-24Q717.20-23.40 717.20-22.52L717.20-22.52Q717.20-21.64 716.54-21.04Q715.88-20.44 715.00-20.44L715.00-20.44Q714.12-20.44 713.44-21.04Q712.76-21.64 712.76-22.52L712.76-22.52Z M737.24-16.56L741.40-16.56L732.56 0.48L732.36 0.48L723.16-16.56L727.60-16.56L732.60-6L737.24-16.56Z M747.80-16.56L751.52-16.56L751.52 0L747.80 0L747.80-16.56ZM747.52-22.52Q747.52-23.40 748.20-24Q748.88-24.60 749.76-24.60L749.76-24.60Q750.64-24.60 751.30-24Q751.96-23.40 751.96-22.52L751.96-22.52Q751.96-21.64 751.30-21.04Q750.64-20.44 749.76-20.44L749.76-20.44Q748.88-20.44 748.20-21.04Q747.52-21.64 747.52-22.52L747.52-22.52Z M770.68-17.20Q773.00-17.20 774.52-15.82Q776.04-14.44 776.08-12.24L776.08-12.24L776.08 0L772.32 0L772.32-10.96Q772.24-12.36 771.48-13.16Q770.72-13.96 769.20-14L769.20-14Q767.00-14 765.56-12.24Q764.12-10.48 764.12-7.76L764.12-7.76L764.12 0L760.40 0L760.40-16.56L763.76-16.56L764.00-13.36Q764.88-15.16 766.64-16.18Q768.40-17.20 770.68-17.20L770.68-17.20Z M799.00-16.56L802.40-16.56L802.40 0.12Q802.40 2.40 801.24 4.24Q800.08 6.08 797.94 7.16Q795.80 8.24 792.92 8.24L792.92 8.24Q790.40 8.24 788.58 7.40Q786.76 6.56 784.92 4.92L784.92 4.92L787.12 2.36Q788.48 3.64 789.84 4.30Q791.20 4.96 792.84 4.96L792.84 4.96Q795.60 4.96 797.10 3.64Q798.60 2.32 798.64 0.08L798.64 0.08L798.68-3.04Q797.76-1.48 795.98-0.54Q794.20 0.40 791.88 0.40L791.88 0.40Q789.60 0.40 787.68-0.76Q785.76-1.92 784.62-3.92Q783.48-5.92 783.48-8.36L783.48-8.36Q783.48-10.88 784.66-12.90Q785.84-14.92 787.84-16.08Q789.84-17.24 792.12-17.24L792.12-17.24Q794.24-17.24 796.04-16.40Q797.84-15.56 798.72-14.24L798.72-14.24L799.00-16.56ZM792.96-2.68Q795.08-2.68 796.64-3.84Q798.20-5 798.68-6.88L798.68-6.88L798.68-10.16Q798.12-11.96 796.56-13.06Q795.00-14.16 792.96-14.16L792.96-14.16Q790.52-14.16 788.88-12.56Q787.24-10.96 787.24-8.48L787.24-8.48Q787.24-6.88 788.00-5.56Q788.76-4.24 790.08-3.46Q791.40-2.68 792.96-2.68L792.96-2.68Z M810.64-12.24Q810.64-13.12 811.30-13.76Q811.96-14.40 812.76-14.40L812.76-14.40Q813.52-14.40 814.16-13.76Q814.80-13.12 814.80-12.24L814.80-12.24Q814.80-11.32 814.18-10.72Q813.56-10.12 812.76-10.12L812.76-10.12Q811.92-10.12 811.28-10.72Q810.64-11.32 810.64-12.24L810.64-12.24ZM814.08-3.52L810.60 4.88L807.56 4.88Q808.96 1.20 810.24-2.32L810.24-2.32L810.68-3.52L814.08-3.52Z M841.56 0.36Q839.72 0.36 838.06-0.28Q836.40-0.92 835.36-2.16L835.36-2.16L836.96-4.32Q837.96-3.36 839.06-2.84Q840.16-2.32 841.24-2.32L841.24-2.32Q842.56-2.32 843.40-2.84Q844.24-3.36 844.24-4.44L844.24-4.44Q844.24-5.28 843.72-5.80Q843.20-6.32 842.54-6.56Q841.88-6.80 840.32-7.28L840.32-7.28Q836.08-8.64 836.08-12.12L836.08-12.12Q836.08-14.20 837.62-15.68Q839.16-17.16 841.92-17.16L841.92-17.16Q843.68-17.16 845.04-16.72Q846.40-16.28 847.56-15.32L847.56-15.32L846.08-13.04Q845.44-13.72 844.46-14.12Q843.48-14.52 842.60-14.56L842.60-14.56Q841.48-14.56 840.68-14.02Q839.88-13.48 839.88-12.56L839.88-12.56Q839.88-11.80 840.40-11.30Q840.92-10.80 841.48-10.58Q842.04-10.36 843.68-9.84L843.68-9.84Q845.72-9.16 846.86-8.08Q848.00-7 848.00-5.16L848.00-5.16Q848.00-2.76 846.32-1.20Q844.64 0.36 841.56 0.36L841.56 0.36Z M863.36-2.80Q865.44-2.80 867.40-4.24L867.40-4.24L869.12-1.48Q867.80-0.60 866.26-0.10Q864.72 0.40 863.28 0.40L863.28 0.40Q860.52 0.40 858.46-0.74Q856.40-1.88 855.28-3.88Q854.16-5.88 854.16-8.40L854.16-8.40Q854.16-10.84 855.38-12.86Q856.60-14.88 858.72-16.06Q860.84-17.24 863.36-17.24L863.36-17.24Q866.60-17.24 868.78-15.34Q870.96-13.44 871.76-10.04L871.76-10.04L858.64-5.44Q859.36-4.20 860.58-3.50Q861.80-2.80 863.36-2.80L863.36-2.80ZM863.08-14.28Q860.80-14.28 859.32-12.68Q857.84-11.08 857.84-8.60L857.84-8.60Q857.84-8 857.88-7.68L857.88-7.68L867.52-11.24Q866.92-12.60 865.82-13.44Q864.72-14.28 863.08-14.28L863.08-14.28Z M878.80-31L882.52-31L882.52 0L878.80 0L878.80-31Z M892.76 0L892.76-13.24L889.92-13.24L889.92-16.60L892.76-16.60L892.76-23.56Q892.76-27.16 894.40-29.08Q896.04-31 899.20-31L899.20-31Q900.08-31 901.08-30.74Q902.08-30.48 902.84-30L902.84-30L901.24-27.28Q900.64-27.92 899.56-27.92L899.56-27.92Q898.04-27.92 897.26-26.88Q896.48-25.84 896.48-23.52L896.48-23.52L896.48-16.60L901.76-16.60L901.76-13.24L896.48-13.24L896.48 0L892.76 0Z M907.92-10.24L915.36-10.24L915.36-6.96L907.92-6.96L907.92-10.24Z M931.32-2.80Q933.40-2.80 935.36-4.24L935.36-4.24L937.08-1.48Q935.76-0.60 934.22-0.10Q932.68 0.40 931.24 0.40L931.24 0.40Q928.48 0.40 926.42-0.74Q924.36-1.88 923.24-3.88Q922.12-5.88 922.12-8.40L922.12-8.40Q922.12-10.84 923.34-12.86Q924.56-14.88 926.68-16.06Q928.80-17.24 931.32-17.24L931.32-17.24Q934.56-17.24 936.74-15.34Q938.92-13.44 939.72-10.04L939.72-10.04L926.60-5.44Q927.32-4.20 928.54-3.50Q929.76-2.80 931.32-2.80L931.32-2.80ZM931.04-14.28Q928.76-14.28 927.28-12.68Q925.80-11.08 925.80-8.60L925.80-8.60Q925.80-8 925.84-7.68L925.84-7.68L935.48-11.24Q934.88-12.60 933.78-13.44Q932.68-14.28 931.04-14.28L931.04-14.28Z M960.32-31L964.04-31L964.04 0L960.28 0L960.28-2.60Q959.08-1.20 957.34-0.40Q955.60 0.40 953.52 0.40L953.52 0.40Q951.20 0.40 949.32-0.72Q947.44-1.84 946.38-3.86Q945.32-5.88 945.32-8.52L945.32-8.52Q945.32-11.20 946.44-13.18Q947.56-15.16 949.52-16.20Q951.48-17.24 953.96-17.24L953.96-17.24Q955.84-17.24 957.58-16.46Q959.32-15.68 960.32-14.32L960.32-14.32L960.32-31ZM954.68-2.80Q956.84-2.80 958.34-3.96Q959.84-5.12 960.28-7.08L960.28-7.08L960.28-10.20Q959.80-12 958.24-13.14Q956.68-14.28 954.68-14.28L954.68-14.28Q953.16-14.28 951.88-13.54Q950.60-12.80 949.84-11.50Q949.08-10.20 949.08-8.56L949.08-8.56Q949.08-6.96 949.84-5.64Q950.60-4.32 951.88-3.56Q953.16-2.80 954.68-2.80L954.68-2.80Z M984.56-16.56L988.28-16.56L988.28 0L984.92 0L984.68-3.16Q983.84-1.48 982.08-0.42Q980.32 0.64 978.16 0.64L978.16 0.64Q975.88 0.64 974.42-0.74Q972.96-2.12 972.88-4.32L972.88-4.32L972.88-16.56L976.60-16.56L976.60-5.64Q976.68-4.24 977.42-3.42Q978.16-2.60 979.64-2.56L979.64-2.56Q981.00-2.56 982.12-3.38Q983.24-4.20 983.90-5.64Q984.56-7.08 984.56-8.84L984.56-8.84L984.56-16.56Z M1010.60-1.56Q1009.48-0.64 1007.94-0.12Q1006.40 0.40 1004.80 0.40L1004.80 0.40Q1002.12 0.40 1000.06-0.68Q998.00-1.76 996.86-3.74Q995.72-5.72 995.72-8.32L995.72-8.32Q995.72-10.88 996.92-12.86Q998.12-14.84 1000.12-15.92Q1002.12-17 1004.44-17L1004.44-17Q1008.24-17 1010.72-14.92L1010.72-14.92L1008.84-12.48Q1008.04-13.08 1007.00-13.50Q1005.96-13.92 1004.76-13.92L1004.76-13.92Q1003.28-13.92 1002.06-13.18Q1000.84-12.44 1000.14-11.16Q999.44-9.88 999.44-8.32L999.44-8.32Q999.44-6.76 1000.18-5.48Q1000.92-4.20 1002.20-3.44Q1003.48-2.68 1005.12-2.68L1005.12-2.68Q1007.16-2.68 1008.68-3.88L1008.68-3.88L1010.60-1.56Z"/></g>
</svg>
</g><g opacity="1" transform="rotate(0 504.8942 507.7782)">
<svg width="378.076" height="100" x="504.8942" y="507.7782" version="1.1" preserveAspectRatio="none" viewBox="3.5547 -32.3242 122.32419999999999 32.3438">
  <g transform="matrix(1 0 0 1 0 0)" class="companyName"><path id="id-D6z1nYkh5" d="M3.55 0L3.55-30.53L9.79-30.53L9.79 0L3.55 0Z M16.95 0L16.95-23.05L22.73-23.05L22.73-21.09Q25.04-22.40 27.14-22.93Q29.24-23.46 31.25-23.46L31.25-23.46Q33.89-23.46 36.13-22.69Q38.38-21.91 40.02-20.39Q41.66-18.87 42.59-16.59Q43.52-14.32 43.52-11.33L43.52-11.33L43.52 0L37.75 0L37.75-10.39Q37.75-12.29 37.22-13.78Q36.68-15.27 35.67-16.30Q34.67-17.32 33.23-17.86Q31.80-18.40 30.02-18.40L30.02-18.40Q29.08-18.40 28.10-18.20Q27.11-18.01 26.16-17.65Q25.21-17.29 24.34-16.75Q23.46-16.21 22.73-15.53L22.73-15.53L22.73 0L16.95 0Z M51.33 0L51.33-30.53L62.52-30.53Q67.42-30.53 71.04-29.47Q74.65-28.42 77.02-26.46Q79.39-24.49 80.56-21.69Q81.72-18.89 81.72-15.39L81.72-15.39Q81.72-12.07 80.57-9.25Q79.41-6.43 77.05-4.37Q74.69-2.30 71.07-1.14Q67.46 0.02 62.56 0.02L62.56 0.02L51.33 0ZM57.52-5.35L64.04-5.35Q66.82-5.35 68.91-6.06Q71.00-6.78 72.39-8.09Q73.79-9.39 74.49-11.25Q75.20-13.11 75.20-15.39L75.20-15.39Q75.20-17.64 74.49-19.44Q73.79-21.25 72.39-22.51Q71.00-23.77 68.91-24.45Q66.82-25.14 64.04-25.14L64.04-25.14L57.52-25.14L57.52-5.35Z M90.25-26.19L90.25-26.19Q89.39-26.19 88.70-26.44Q88.01-26.68 87.52-27.10Q87.03-27.52 86.77-28.08Q86.50-28.63 86.50-29.26L86.50-29.26Q86.50-29.90 86.77-30.46Q87.03-31.02 87.52-31.43Q88.01-31.84 88.70-32.08Q89.39-32.32 90.25-32.32L90.25-32.32Q91.13-32.32 91.83-32.08Q92.52-31.84 93.01-31.43Q93.50-31.02 93.76-30.46Q94.02-29.90 94.02-29.26L94.02-29.26Q94.02-28.63 93.76-28.08Q93.50-27.52 93.01-27.10Q92.52-26.68 91.83-26.44Q91.13-26.19 90.25-26.19ZM87.36 0L87.36-23.05L93.14-23.05L93.14 0L87.36 0Z M108.28 0L97.36-23.07L104.06-23.07L110.06-9.20L111.62-5.31L113.18-9.20L119.18-23.07L125.88-23.07L114.96 0L108.28 0Z"/></g>
</svg>
</g><g opacity="1" transform="rotate(0 618.317 326.5478)">
<svg width="151.2304" height="151.2304" x="618.317" y="326.5478" version="1.1" preserveAspectRatio="none" viewBox="40 40 120.00003051757812 120">
  <g transform="matrix(1 0 0 1 0 0)"><g><path d="M159.104 101.385c0 31.635-25.646 57.281-57.281 57.281-31.635 0-57.281-25.646-57.281-57.281 0-31.635 25.646-57.281 57.281-57.281 31.635 0 57.281 25.646 57.281 57.281z" data-color="1" class="icon1"></path><path d="M145.11 104.758c-3.915-1.764-4.066-7.347-.249-9.261 4.84-2.428 2.959-9.865-2.452-9.701-4.268.129-6.789-4.854-4.182-8.267 3.306-4.328-1.561-10.226-6.347-7.694-3.775 1.997-8.167-1.4-7.286-5.635 1.117-5.37-5.771-8.562-8.985-4.164-2.534 3.469-7.928 2.331-8.948-1.888-1.293-5.349-8.839-5.202-9.843.192-.792 4.254-6.119 5.6-8.837 2.234-3.447-4.269-10.156-.812-8.752 4.509a5.076 5.076 0 0 1-3.62 6.259h-2.391a5.191 5.191 0 0 1-.964-.346c-1.825-.869-3.597-.577-4.925.346H48.778L60.011 88.06c-3.158 1.93-3.394 7.252.654 9.076 3.915 1.764 4.066 7.347.249 9.261-4.84 2.428-2.959 9.865 2.452 9.701 4.268-.129 6.789 4.854 4.182 8.267-3.306 4.328 1.561 10.227 6.347 7.694 3.775-1.997 8.167 1.4 7.286 5.635-1.117 5.37 5.771 8.562 8.985 4.164 2.534-3.469 7.928-2.331 8.948 1.888 1.293 5.349 8.839 5.202 9.843-.192.792-4.254 6.119-5.6 8.837-2.234 3.447 4.269 10.156.812 8.752-4.509-1.108-4.196 3.097-7.761 6.976-5.913 4.918 2.343 9.462-3.739 5.927-7.933-2.788-3.308-.537-8.384 3.733-8.421 5.414-.046 6.893-7.549 1.928-9.786z" data-color="2" class="icon2"></path><path d="M72.695 128.941l.013-.013c56.87 5.36 77.885-14.462 79.118-60.326l.046.006-.053.085c-42.877-14.291-65.922 36.073-55.351 82.466l-23.773-22.218z" data-color="3" class="icon3"></path><path d="M101.598 54.019l-6.671 12.359 5.067-16.247-6.716-2.095-3.474 11.14-.365-.632 1.515-8.403-1.854-.716 2.427-3.322-3.919-4.617-7.874 11.215-2.152-.342 1.046-6.474-5.699-.921-1.486 9.195-3.281-8.19-5.993.875 3.243 7.674-5.432-4.913-1.83 3.4-1.391-3.4-5.986.919 3.728 8.645-6.462 4.686 9.237 8.264c2.302.011 4.599.108 6.893.243 4.184-.094 8.368-.197 12.552-.32 7.185-.212 14.369-.577 21.542-.241a7.2 7.2 0 0 1 1.694.075l7.191-13.322-5.55-4.535z" data-color="3" class="icon3"></path><path d="M131.257 100.361l-4.229.28-.01-6.425 4.331-.287a.8.8 0 0 0 .746-.851.812.812 0 0 0-.851-.746l-4.229.28-.007-4.238a.8.8 0 0 0-.8-.799h-.002a.801.801 0 0 0-.799.802l.007 4.341-6.411.424-.007-4.238a.8.8 0 0 0-.8-.799h-.002a.801.801 0 0 0-.799.802l.007 4.341-4.332.287a.8.8 0 0 0 .052 1.599l.054-.002 4.229-.28.011 6.424-4.332.286a.8.8 0 0 0 .052 1.599l.054-.002 4.229-.28.007 4.238a.8.8 0 0 0 .8.799h.002a.801.801 0 0 0 .799-.802l-.007-4.341 6.411-.424.007 4.238a.8.8 0 0 0 .8.799h.002a.801.801 0 0 0 .799-.802l-.007-4.341 4.331-.286a.8.8 0 0 0 .746-.851.818.818 0 0 0-.852-.745zm-12.24.809l-.011-6.424 6.411-.424.01 6.425-6.41.423z" data-color="4" class="aDFQBjvS2colors-3"></path><path d="M133.953 75.206a4.427 4.427 0 0 0-1.213 3.036c.002 1.138.449 2.182 1.258 2.938a.8.8 0 1 0 1.094-1.169 2.4 2.4 0 0 1-.751-1.772c-.001-.711.276-1.4.781-1.94 1.029-1.1 2.69-1.227 3.701-.281a.8.8 0 1 0 1.093-1.169c-1.656-1.549-4.332-1.388-5.963.357z" data-color="4" class="aDFQBjvS2colors-3"></path><path d="M153.03 71.959c.048-.982.09-1.972.12-2.983a1.388 1.388 0 0 0-.093-.938 1.374 1.374 0 0 0-1.297-.768 56.543 56.543 0 0 0-1.87-.564C139.117 50.615 120.776 40 100 40c-3.921 0-7.818.39-11.635 1.144l-.819-.965-.94 1.339a60.126 60.126 0 0 0-9.998 3.23l-4.343-.702-.485 3.001c-.536.284-1.07.572-1.597.875-.11.063-.202.143-.286.229l-1.228-3.065-7.642 1.116 2.239 5.299-3.509-3.173-1.51 2.807-.988-2.415-7.633 1.172 3.885 9.007-6.747 4.892 3.32 2.97a60.278 60.278 0 0 0-2.239 3.635 1.3 1.3 0 0 0-.244.319 1.35 1.35 0 0 0-.118.319A59.91 59.91 0 0 0 40 100c0 33.084 26.916 60 60 60s60-26.916 60-60a59.624 59.624 0 0 0-6.97-28.041zm-2.571-2.304c-.747 21.977-6.049 36.612-16.648 46.002-8.703 7.711-21.411 11.902-38.549 12.656.055-21.15 6.87-40.689 18.891-51.59 6.708-6.082 14.627-9.16 23.357-9.16 4.149 0 8.481.695 12.949 2.092zM87.666 42.793l2.841 3.347-1.693 2.317-4.031-1.557 2.883-4.107zM69.512 88.87h-7.344l-.006.001-4.548-6.769h13.459a.8.8 0 1 0 0-1.6H56.545l-.006.001-5.258-7.826h52.196L77.66 111.94 63.237 90.47h6.275a.8.8 0 1 0 0-1.6zM51.165 70.008c.301-.489.608-.974.924-1.454l1.625 1.454h-2.549zm14.783 0l-3.859-8.949 6.637 4.884-.657 4.065h-2.121zm3.742 0l.485-2.998 4.074 2.998H69.69zm15.779 0v-2.667l.617 1.069-.498 1.598h-.119zm11.512 0l-1.524-2.639.212-.679 6.174-11.438 4.285 3.503-6.074 11.253h-3.073zm-2.613-4.526l-3.696-6.402 3.131-10.041 5.188 1.617-4.623 14.826zm.764 4.526h-6.275l-3.388-5.868v-7.59l1.42-.82 8.243 14.278zm-6.093-13.756l-1.564-2.709-2.006 1.158v-1.898l-1.294-.206.711-3.942 5.163 1.994-1.01 5.603zm-9.706-9.721a57.35 57.35 0 0 1 4.913-1.651l-4.881 6.953-.866-.138.834-5.164zm3.825 2.683l-.565 3.132-1.471-.234 2.036-2.898zm-4.915 4.061l5.625.894v15.838h-4.876l-.998-15.197.249-1.535zm-6.078 1.421l.102-.629 1.323-8.185 4.119.666-.791 4.896-.756-.12.224 3.41-1.217 7.53-3.688-3.335.684-4.233zm4.823 9.213l-.405-.366.271-1.675.134 2.041zM71.246 50.35l-.135.833-.31-.775c.149.005.299-.012.445-.058zm-3.594-3.499l2.964 7.399-.549 3.399-3.987-3.606-2.771-6.557 4.343-.635zm-7.453 4.032l4.544 4.109.145.131 12.251 11.08.25 3.804h-.439L57.579 55.752l2.62-4.869zm-8.283.275l4.339-.666 1.009 2.467-1.754 3.259 4.025 2.962 4.67 10.828h-4.159l-8.13-18.85zm-2.605 12.761l4.85-3.517 4.142 9.605h-2.187l-6.805-6.088zM100 157.332c-31.613 0-57.332-25.719-57.332-57.333 0-9.175 2.214-18.07 6.272-26.025l27.184 40.461c.248.368.663.59 1.107.59h.873c.449 0 .868-.226 1.115-.601l27.847-42.35a1.334 1.334 0 0 0-1.115-2.067h-4.078l6.291-11.656-6.809-5.566-3.197 5.923 2.839-9.104-8.245-2.571-1.008 3.234.115-.636-1.497-.578 2.183-2.988-2.187-2.576c3.174-.541 6.4-.822 9.643-.822 18.781 0 35.478 9.081 45.941 23.08-12.718-2.536-24.227.519-33.579 8.999-12.567 11.395-19.701 31.728-19.755 53.655-6.058.137-12.646-.129-19.775-.801-.4-.033-.796.108-1.078.394l-.013.013a1.337 1.337 0 0 0 .042 1.908l23.773 22.218a1.332 1.332 0 0 0 2.211-1.27 100.714 100.714 0 0 1-2.477-19.885c17.824-.777 31.108-5.189 40.289-13.323 9.889-8.76 15.402-21.691 17.081-40.301a56.981 56.981 0 0 1 4.67 22.647c.001 31.612-25.718 57.331-57.331 57.331zm-5.684-10.01l-17.911-16.739c5.767.438 11.172.6 16.231.483a102.91 102.91 0 0 0 1.68 16.256z" data-color="4" class="aDFQBjvS2colors-3"></path></g></g>
</svg>
</g></svg></svg>