<svg version="1.1" preserveAspectRatio="none" xmlns="http://www.w3.org/2000/svg" width="500" height="500" viewBox="0 0 500 500"><rect width="100%" height="100%" fill="#F8EEFF" fill-opacity="1"/><svg viewBox="1061.8793 776.272 701.9032 269.2" width="333" height="127.71504674718679" x="83.5px" y="186.1425px" xmlns="http://www.w3.org/2000/svg" xmlns:xlink="http://www.w3.org/1999/xlink" preserveAspectRatio="none"><defs></defs><style>.aIptOCySncolors-3 {fill:#FF9E69;fill-opacity:1;}.aIptOCySncolors-4 {fill:#FEEAA3;fill-opacity:1;}.aIptOCySncolors-5 {fill:#885BAA;fill-opacity:1;}.aIptOCySncolors-6 {fill:#270D5D;fill-opacity:1;}.aIptOCySncolors-7 {fill:#000000;fill-opacity:1;}.companyName {fill:#BB90DB;fill-opacity:1;}.icon1 {fill:#BB90DB;fill-opacity:1;}.icon2 {fill:#FF5F08;fill-opacity:1;}.icon3 {fill:#FFD649;fill-opacity:1;}.icon3-str {stroke:#FFD649;stroke-opacity:1;}.text {fill:#BB90DB;fill-opacity:1;}</style><g opacity="1" transform="rotate(0 1362.8309 776.272)">
<svg width="100" height="100" x="1362.8309" y="776.272" version="1.1" preserveAspectRatio="none" viewBox="20 20 160 160">
  <g transform="matrix(1 0 0 1 0 0)"><g><path d="M177.5 180h-155a2.5 2.5 0 0 1-2.5-2.5v-125a2.5 2.5 0 0 1 2.5-2.5h155a2.5 2.5 0 0 1 2.5 2.5v125a2.5 2.5 0 0 1-2.5 2.5zM25 175h150V55H25v120z" data-color="1" class="icon1"></path><path d="M42.5 45c-4.136 0-7.5-3.365-7.5-7.5s3.364-7.5 7.5-7.5 7.5 3.365 7.5 7.5-3.364 7.5-7.5 7.5zm0-10c-1.379 0-2.5 1.122-2.5 2.5s1.121 2.5 2.5 2.5 2.5-1.122 2.5-2.5-1.121-2.5-2.5-2.5z" data-color="1" class="icon1"></path><path d="M62.5 45c-4.136 0-7.5-3.365-7.5-7.5s3.364-7.5 7.5-7.5 7.5 3.365 7.5 7.5-3.364 7.5-7.5 7.5zm0-10c-1.379 0-2.5 1.122-2.5 2.5s1.121 2.5 2.5 2.5 2.5-1.122 2.5-2.5-1.121-2.5-2.5-2.5z" data-color="1" class="icon1"></path><path d="M82.5 45c-4.136 0-7.5-3.365-7.5-7.5s3.364-7.5 7.5-7.5 7.5 3.365 7.5 7.5-3.364 7.5-7.5 7.5zm0-10c-1.379 0-2.5 1.122-2.5 2.5s1.121 2.5 2.5 2.5 2.5-1.122 2.5-2.5-1.121-2.5-2.5-2.5z" data-color="1" class="icon1"></path><path d="M177.5 55a2.5 2.5 0 0 1-2.5-2.5v-20a2.5 2.5 0 1 1 5 0v20a2.5 2.5 0 0 1-2.5 2.5z" data-color="1" class="icon1"></path><path d="M22.5 55a2.5 2.5 0 0 1-2.5-2.5v-20C20 25.608 25.607 20 32.5 20h135c6.893 0 12.5 5.608 12.5 12.5a2.5 2.5 0 1 1-5 0c0-4.135-3.364-7.5-7.5-7.5h-135c-4.136 0-7.5 3.365-7.5 7.5v20a2.5 2.5 0 0 1-2.5 2.5z" data-color="1" class="icon1"></path><path d="M162.5 165h-125a2.5 2.5 0 1 1 0-5h125a2.5 2.5 0 1 1 0 5z" data-color="1" class="icon1"></path><path d="M127.5 170a2.5 2.5 0 0 1-2.5-2.5v-10a2.5 2.5 0 1 1 5 0v10a2.5 2.5 0 0 1-2.5 2.5z" data-color="1" class="icon1"></path><path d="M162.5 145H95a2.5 2.5 0 1 1 0-5h65V70H87.5a2.5 2.5 0 1 1 0-5h75a2.5 2.5 0 0 1 2.5 2.5v75a2.5 2.5 0 0 1-2.5 2.5z" data-color="1" class="icon1"></path><path d="M67.5 105c-8.271 0-15-7.16-15-15.962v-9.871C52.5 71.356 59.229 65 67.5 65s15 6.356 15 14.167v9.871c0 8.802-6.729 15.962-15 15.962zm0-35c-5.514 0-10 4.113-10 9.167v9.871c0 6.044 4.486 10.962 10 10.962s10-4.918 10-10.962v-9.871c0-5.054-4.486-9.167-10-9.167z" data-color="1" class="icon1"></path><path d="M142.5 105h-10a2.5 2.5 0 1 1 0-5h10a2.5 2.5 0 1 1 0 5z" data-color="1" class="icon1"></path><path d="M50 155a2.5 2.5 0 0 1-2.5-2.5v-30a2.5 2.5 0 1 1 5 0v30A2.5 2.5 0 0 1 50 155z" data-color="1" class="icon1"></path><path d="M85 155a2.5 2.5 0 0 1-2.5-2.5v-30c0-1.192.841-2.218 2.01-2.451L120 112.95V105H62.878l-17.592 5.443C41.614 112.636 40 114.295 40 120v32.5a2.5 2.5 0 1 1-5 0V120c0-7.816 2.81-10.954 7.996-14.012a2.51 2.51 0 0 1 .53-.235l18.235-5.642c.239-.073.489-.111.739-.111h60a2.5 2.5 0 0 1 2.5 2.5V115a2.499 2.499 0 0 1-2.01 2.451L87.5 124.55v27.95A2.5 2.5 0 0 1 85 155z" data-color="1" class="icon1"></path></g></g>
</svg>
</g><g opacity="1" transform="rotate(0 1061.8793 1020.272)">
<svg width="701.9032" height="25.2" x="1061.8793" y="1020.272" version="1.1" preserveAspectRatio="none" viewBox="4.2 -30.28 1066.4799999999998 38.28">
  <g transform="matrix(1 0 0 1 0 0)" class="text"><path id="id-6izo4zJp50" d="M23.96-24.52L8.20-24.52L8.20-14.76L22.24-14.76L22.24-11.32L8.20-11.32L8.20 0L4.20 0L4.20-28L23.96-28L23.96-24.52Z M38.64 0.24Q35.48 0.24 32.96-1.16Q30.44-2.56 29.02-5.02Q27.60-7.48 27.60-10.60L27.60-10.60Q27.60-13.72 29.02-16.18Q30.44-18.64 32.96-20.02Q35.48-21.40 38.64-21.40L38.64-21.40Q41.80-21.40 44.30-20.02Q46.80-18.64 48.22-16.18Q49.64-13.72 49.64-10.60L49.64-10.60Q49.64-7.48 48.22-5.02Q46.80-2.56 44.30-1.16Q41.80 0.24 38.64 0.24L38.64 0.24ZM38.64-3.12Q40.68-3.12 42.30-4.06Q43.92-5 44.84-6.70Q45.76-8.40 45.76-10.60L45.76-10.60Q45.76-12.80 44.84-14.50Q43.92-16.20 42.30-17.12Q40.68-18.04 38.64-18.04L38.64-18.04Q36.60-18.04 34.98-17.12Q33.36-16.20 32.42-14.50Q31.48-12.80 31.48-10.60L31.48-10.60Q31.48-8.40 32.42-6.70Q33.36-5 34.98-4.06Q36.60-3.12 38.64-3.12L38.64-3.12Z M59.84-17.64Q60.84-19.48 62.80-20.44Q64.76-21.40 67.56-21.40L67.56-21.40L67.56-17.68Q67.24-17.72 66.68-17.72L66.68-17.72Q63.56-17.72 61.78-15.86Q60.00-14 60.00-10.56L60.00-10.56L60.00 0L56.16 0L56.16-21.20L59.84-21.20L59.84-17.64Z M100.00-21.40Q104.00-21.40 106.34-19.08Q108.68-16.76 108.68-12.20L108.68-12.20L108.68 0L104.84 0L104.84-11.76Q104.84-14.84 103.42-16.40Q102.00-17.96 99.36-17.96L99.36-17.96Q96.44-17.96 94.72-16.14Q93.00-14.32 93.00-10.92L93.00-10.92L93.00 0L89.16 0L89.16-11.76Q89.16-14.84 87.74-16.40Q86.32-17.96 83.68-17.96L83.68-17.96Q80.76-17.96 79.04-16.14Q77.32-14.32 77.32-10.92L77.32-10.92L77.32 0L73.48 0L73.48-21.20L77.16-21.20L77.16-18.04Q78.32-19.68 80.20-20.54Q82.08-21.40 84.48-21.40L84.48-21.40Q86.96-21.40 88.88-20.40Q90.80-19.40 91.84-17.48L91.84-17.48Q93.04-19.32 95.18-20.36Q97.32-21.40 100.00-21.40L100.00-21.40Z M124.68-21.40Q129.08-21.40 131.42-19.24Q133.76-17.08 133.76-12.80L133.76-12.80L133.76 0L130.12 0L130.12-2.80Q129.16-1.32 127.38-0.54Q125.60 0.24 123.16 0.24L123.16 0.24Q119.60 0.24 117.46-1.48Q115.32-3.20 115.32-6L115.32-6Q115.32-8.80 117.36-10.50Q119.40-12.20 123.84-12.20L123.84-12.20L129.92-12.20L129.92-12.96Q129.92-15.44 128.48-16.76Q127.04-18.08 124.24-18.08L124.24-18.08Q122.36-18.08 120.56-17.46Q118.76-16.84 117.52-15.80L117.52-15.80L115.92-18.68Q117.56-20 119.84-20.70Q122.12-21.40 124.68-21.40L124.68-21.40ZM123.80-2.72Q126.00-2.72 127.60-3.70Q129.20-4.68 129.92-6.48L129.92-6.48L129.92-9.44L124.00-9.44Q119.12-9.44 119.12-6.16L119.12-6.16Q119.12-4.56 120.36-3.64Q121.60-2.72 123.80-2.72L123.80-2.72Z M142.08 0L142.08-29.68L145.92-29.68L145.92 0L142.08 0Z M185.56-10.48Q185.56-10.04 185.48-9.32L185.48-9.32L168.28-9.32Q168.64-6.52 170.74-4.82Q172.84-3.12 175.96-3.12L175.96-3.12Q179.76-3.12 182.08-5.68L182.08-5.68L184.20-3.20Q182.76-1.52 180.62-0.64Q178.48 0.24 175.84 0.24L175.84 0.24Q172.48 0.24 169.88-1.14Q167.28-2.52 165.86-5Q164.44-7.48 164.44-10.60L164.44-10.60Q164.44-13.68 165.82-16.16Q167.20-18.64 169.62-20.02Q172.04-21.40 175.08-21.40L175.08-21.40Q178.12-21.40 180.50-20.02Q182.88-18.64 184.22-16.16Q185.56-13.68 185.56-10.48L185.56-10.48ZM175.08-18.16Q172.32-18.16 170.46-16.48Q168.60-14.80 168.28-12.08L168.28-12.08L181.88-12.08Q181.56-14.76 179.70-16.46Q177.84-18.16 175.08-18.16L175.08-18.16Z M208.24-29.68L212.08-29.68L212.08 0L208.40 0L208.40-3.36Q207.12-1.60 205.16-0.68Q203.20 0.24 200.84 0.24L200.84 0.24Q197.76 0.24 195.32-1.12Q192.88-2.48 191.50-4.94Q190.12-7.40 190.12-10.60L190.12-10.60Q190.12-13.80 191.50-16.24Q192.88-18.68 195.32-20.04Q197.76-21.40 200.84-21.40L200.84-21.40Q203.12-21.40 205.04-20.54Q206.96-19.68 208.24-18L208.24-18L208.24-29.68ZM201.16-3.12Q203.16-3.12 204.80-4.06Q206.44-5 207.36-6.70Q208.28-8.40 208.28-10.60L208.28-10.60Q208.28-12.80 207.36-14.50Q206.44-16.20 204.80-17.12Q203.16-18.04 201.16-18.04L201.16-18.04Q199.12-18.04 197.50-17.12Q195.88-16.20 194.94-14.50Q194.00-12.80 194.00-10.60L194.00-10.60Q194.00-8.40 194.94-6.70Q195.88-5 197.50-4.06Q199.12-3.12 201.16-3.12L201.16-3.12Z M236.48-21.20L240.32-21.20L240.32 0L236.68 0L236.68-3.20Q235.52-1.56 233.62-0.66Q231.72 0.24 229.48 0.24L229.48 0.24Q225.24 0.24 222.80-2.10Q220.36-4.44 220.36-9L220.36-9L220.36-21.20L224.20-21.20L224.20-9.44Q224.20-6.36 225.68-4.78Q227.16-3.20 229.92-3.20L229.92-3.20Q232.96-3.20 234.72-5.04Q236.48-6.88 236.48-10.24L236.48-10.24L236.48-21.20Z M258.08 0.24Q254.84 0.24 252.30-1.16Q249.76-2.56 248.32-5.02Q246.88-7.48 246.88-10.60L246.88-10.60Q246.88-13.72 248.32-16.18Q249.76-18.64 252.30-20.02Q254.84-21.40 258.08-21.40L258.08-21.40Q260.96-21.40 263.22-20.24Q265.48-19.08 266.72-16.88L266.72-16.88L263.80-15Q262.80-16.52 261.32-17.28Q259.84-18.04 258.04-18.04L258.04-18.04Q255.96-18.04 254.30-17.12Q252.64-16.20 251.70-14.50Q250.76-12.80 250.76-10.60L250.76-10.60Q250.76-8.36 251.70-6.66Q252.64-4.96 254.30-4.04Q255.96-3.12 258.04-3.12L258.04-3.12Q259.84-3.12 261.32-3.88Q262.80-4.64 263.80-6.16L263.80-6.16L266.72-4.32Q265.48-2.12 263.22-0.94Q260.96 0.24 258.08 0.24L258.08 0.24Z M280.60-21.40Q285.00-21.40 287.34-19.24Q289.68-17.08 289.68-12.80L289.68-12.80L289.68 0L286.04 0L286.04-2.80Q285.08-1.32 283.30-0.54Q281.52 0.24 279.08 0.24L279.08 0.24Q275.52 0.24 273.38-1.48Q271.24-3.20 271.24-6L271.24-6Q271.24-8.80 273.28-10.50Q275.32-12.20 279.76-12.20L279.76-12.20L285.84-12.20L285.84-12.96Q285.84-15.44 284.40-16.76Q282.96-18.08 280.16-18.08L280.16-18.08Q278.28-18.08 276.48-17.46Q274.68-16.84 273.44-15.80L273.44-15.80L271.84-18.68Q273.48-20 275.76-20.70Q278.04-21.40 280.60-21.40L280.60-21.40ZM279.72-2.72Q281.92-2.72 283.52-3.70Q285.12-4.68 285.84-6.48L285.84-6.48L285.84-9.44L279.92-9.44Q275.04-9.44 275.04-6.16L275.04-6.16Q275.04-4.56 276.28-3.64Q277.52-2.72 279.72-2.72L279.72-2.72Z M308.72-4L309.92-1.24Q309.08-0.52 307.84-0.14Q306.60 0.24 305.28 0.24L305.28 0.24Q302.08 0.24 300.32-1.48Q298.56-3.20 298.56-6.40L298.56-6.40L298.56-18.04L294.96-18.04L294.96-21.20L298.56-21.20L298.56-25.84L302.40-25.84L302.40-21.20L308.48-21.20L308.48-18.04L302.40-18.04L302.40-6.56Q302.40-4.84 303.26-3.92Q304.12-3 305.72-3L305.72-3Q307.48-3 308.72-4L308.72-4Z M315.76 0L315.76-21.20L319.60-21.20L319.60 0L315.76 0ZM317.68-25.28Q316.56-25.28 315.82-26Q315.08-26.72 315.08-27.76L315.08-27.76Q315.08-28.80 315.82-29.54Q316.56-30.28 317.68-30.28L317.68-30.28Q318.80-30.28 319.54-29.58Q320.28-28.88 320.28-27.84L320.28-27.84Q320.28-26.76 319.54-26.02Q318.80-25.28 317.68-25.28L317.68-25.28Z M337.20 0.24Q334.04 0.24 331.52-1.16Q329.00-2.56 327.58-5.02Q326.16-7.48 326.16-10.60L326.16-10.60Q326.16-13.72 327.58-16.18Q329.00-18.64 331.52-20.02Q334.04-21.40 337.20-21.40L337.20-21.40Q340.36-21.40 342.86-20.02Q345.36-18.64 346.78-16.18Q348.20-13.72 348.20-10.60L348.20-10.60Q348.20-7.48 346.78-5.02Q345.36-2.56 342.86-1.16Q340.36 0.24 337.20 0.24L337.20 0.24ZM337.20-3.12Q339.24-3.12 340.86-4.06Q342.48-5 343.40-6.70Q344.32-8.40 344.32-10.60L344.32-10.60Q344.32-12.80 343.40-14.50Q342.48-16.20 340.86-17.12Q339.24-18.04 337.20-18.04L337.20-18.04Q335.16-18.04 333.54-17.12Q331.92-16.20 330.98-14.50Q330.04-12.80 330.04-10.60L330.04-10.60Q330.04-8.40 330.98-6.70Q331.92-5 333.54-4.06Q335.16-3.12 337.20-3.12L337.20-3.12Z M366.04-21.40Q370.08-21.40 372.46-19.06Q374.84-16.72 374.84-12.20L374.84-12.20L374.84 0L371.00 0L371.00-11.76Q371.00-14.84 369.52-16.40Q368.04-17.96 365.28-17.96L365.28-17.96Q362.16-17.96 360.36-16.14Q358.56-14.32 358.56-10.92L358.56-10.92L358.56 0L354.72 0L354.72-21.20L358.40-21.20L358.40-18Q359.56-19.64 361.54-20.52Q363.52-21.40 366.04-21.40L366.04-21.40Z M423.76-21.20L427.20-21.20L419.28 0L415.60 0L409.48-16.08L403.28 0L399.60 0L391.72-21.20L395.36-21.20L401.52-4.32L407.92-21.20L411.16-21.20L417.44-4.24L423.76-21.20Z M432.28 0L432.28-21.20L436.12-21.20L436.12 0L432.28 0ZM434.20-25.28Q433.08-25.28 432.34-26Q431.60-26.72 431.60-27.76L431.60-27.76Q431.60-28.80 432.34-29.54Q433.08-30.28 434.20-30.28L434.20-30.28Q435.32-30.28 436.06-29.58Q436.80-28.88 436.80-27.84L436.80-27.84Q436.80-26.76 436.06-26.02Q435.32-25.28 434.20-25.28L434.20-25.28Z M444.64 0L444.64-29.68L448.48-29.68L448.48 0L444.64 0Z M457.00 0L457.00-29.68L460.84-29.68L460.84 0L457.00 0Z M507.84-21.40Q511.84-21.40 514.18-19.08Q516.52-16.76 516.52-12.20L516.52-12.20L516.52 0L512.68 0L512.68-11.76Q512.68-14.84 511.26-16.40Q509.84-17.96 507.20-17.96L507.20-17.96Q504.28-17.96 502.56-16.14Q500.84-14.32 500.84-10.92L500.84-10.92L500.84 0L497.00 0L497.00-11.76Q497.00-14.84 495.58-16.40Q494.16-17.96 491.52-17.96L491.52-17.96Q488.60-17.96 486.88-16.14Q485.16-14.32 485.16-10.92L485.16-10.92L485.16 0L481.32 0L481.32-21.20L485.00-21.20L485.00-18.04Q486.16-19.68 488.04-20.54Q489.92-21.40 492.32-21.40L492.32-21.40Q494.80-21.40 496.72-20.40Q498.64-19.40 499.68-17.48L499.68-17.48Q500.88-19.32 503.02-20.36Q505.16-21.40 507.84-21.40L507.84-21.40Z M532.52-21.40Q536.92-21.40 539.26-19.24Q541.60-17.08 541.60-12.80L541.60-12.80L541.60 0L537.96 0L537.96-2.80Q537.00-1.32 535.22-0.54Q533.44 0.24 531.00 0.24L531.00 0.24Q527.44 0.24 525.30-1.48Q523.16-3.20 523.16-6L523.16-6Q523.16-8.80 525.20-10.50Q527.24-12.20 531.68-12.20L531.68-12.20L537.76-12.20L537.76-12.96Q537.76-15.44 536.32-16.76Q534.88-18.08 532.08-18.08L532.08-18.08Q530.20-18.08 528.40-17.46Q526.60-16.84 525.36-15.80L525.36-15.80L523.76-18.68Q525.40-20 527.68-20.70Q529.96-21.40 532.52-21.40L532.52-21.40ZM531.64-2.72Q533.84-2.72 535.44-3.70Q537.04-4.68 537.76-6.48L537.76-6.48L537.76-9.44L531.84-9.44Q526.96-9.44 526.96-6.16L526.96-6.16Q526.96-4.56 528.20-3.64Q529.44-2.72 531.64-2.72L531.64-2.72Z M566.12 0L558.16-9.88L553.76-5.80L553.76 0L549.92 0L549.92-29.68L553.76-29.68L553.76-10.64L565.32-21.20L569.96-21.20L561.04-12.44L570.84 0L566.12 0Z M594.04-10.48Q594.04-10.04 593.96-9.32L593.96-9.32L576.76-9.32Q577.12-6.52 579.22-4.82Q581.32-3.12 584.44-3.12L584.44-3.12Q588.24-3.12 590.56-5.68L590.56-5.68L592.68-3.20Q591.24-1.52 589.10-0.64Q586.96 0.24 584.32 0.24L584.32 0.24Q580.96 0.24 578.36-1.14Q575.76-2.52 574.34-5Q572.92-7.48 572.92-10.60L572.92-10.60Q572.92-13.68 574.30-16.16Q575.68-18.64 578.10-20.02Q580.52-21.40 583.56-21.40L583.56-21.40Q586.60-21.40 588.98-20.02Q591.36-18.64 592.70-16.16Q594.04-13.68 594.04-10.48L594.04-10.48ZM583.56-18.16Q580.80-18.16 578.94-16.48Q577.08-14.80 576.76-12.08L576.76-12.08L590.36-12.08Q590.04-14.76 588.18-16.46Q586.32-18.16 583.56-18.16L583.56-18.16Z M627.52-21.20L631.28-21.20L621 2.12Q619.64 5.36 617.82 6.68Q616 8 613.44 8L613.44 8Q611.88 8 610.42 7.50Q608.96 7 608 6.04L608 6.04L609.64 3.16Q611.28 4.72 613.44 4.72L613.44 4.72Q614.84 4.72 615.78 3.98Q616.72 3.24 617.48 1.44L617.48 1.44L618.16-0.04L608.80-21.20L612.80-21.20L620.20-4.24L627.52-21.20Z M644.56 0.24Q641.40 0.24 638.88-1.16Q636.36-2.56 634.94-5.02Q633.52-7.48 633.52-10.60L633.52-10.60Q633.52-13.72 634.94-16.18Q636.36-18.64 638.88-20.02Q641.40-21.40 644.56-21.40L644.56-21.40Q647.72-21.40 650.22-20.02Q652.72-18.64 654.14-16.18Q655.56-13.72 655.56-10.60L655.56-10.60Q655.56-7.48 654.14-5.02Q652.72-2.56 650.22-1.16Q647.72 0.24 644.56 0.24L644.56 0.24ZM644.56-3.12Q646.60-3.12 648.22-4.06Q649.84-5 650.76-6.70Q651.68-8.40 651.68-10.60L651.68-10.60Q651.68-12.80 650.76-14.50Q649.84-16.20 648.22-17.12Q646.60-18.04 644.56-18.04L644.56-18.04Q642.52-18.04 640.90-17.12Q639.28-16.20 638.34-14.50Q637.40-12.80 637.40-10.60L637.40-10.60Q637.40-8.40 638.34-6.70Q639.28-5 640.90-4.06Q642.52-3.12 644.56-3.12L644.56-3.12Z M678-21.20L681.84-21.20L681.84 0L678.20 0L678.20-3.20Q677.04-1.56 675.14-0.66Q673.24 0.24 671 0.24L671 0.24Q666.76 0.24 664.32-2.10Q661.88-4.44 661.88-9L661.88-9L661.88-21.20L665.72-21.20L665.72-9.44Q665.72-6.36 667.20-4.78Q668.68-3.20 671.44-3.20L671.44-3.20Q674.48-3.20 676.24-5.04Q678-6.88 678-10.24L678-10.24L678-21.20Z M710.04-21.40Q714.44-21.40 716.78-19.24Q719.12-17.08 719.12-12.80L719.12-12.80L719.12 0L715.48 0L715.48-2.80Q714.52-1.32 712.74-0.54Q710.96 0.24 708.52 0.24L708.52 0.24Q704.96 0.24 702.82-1.48Q700.68-3.20 700.68-6L700.68-6Q700.68-8.80 702.72-10.50Q704.76-12.20 709.20-12.20L709.20-12.20L715.28-12.20L715.28-12.96Q715.28-15.44 713.84-16.76Q712.40-18.08 709.60-18.08L709.60-18.08Q707.72-18.08 705.92-17.46Q704.12-16.84 702.88-15.80L702.88-15.80L701.28-18.68Q702.92-20 705.20-20.70Q707.48-21.40 710.04-21.40L710.04-21.40ZM709.16-2.72Q711.36-2.72 712.96-3.70Q714.56-4.68 715.28-6.48L715.28-6.48L715.28-9.44L709.36-9.44Q704.48-9.44 704.48-6.16L704.48-6.16Q704.48-4.56 705.72-3.64Q706.96-2.72 709.16-2.72L709.16-2.72Z M739.40 0L739.40-29.68L743.24-29.68L743.24 0L739.40 0Z M751.76 0L751.76-21.20L755.60-21.20L755.60 0L751.76 0ZM753.68-25.28Q752.56-25.28 751.82-26Q751.08-26.72 751.08-27.76L751.08-27.76Q751.08-28.80 751.82-29.54Q752.56-30.28 753.68-30.28L753.68-30.28Q754.80-30.28 755.54-29.58Q756.28-28.88 756.28-27.84L756.28-27.84Q756.28-26.76 755.54-26.02Q754.80-25.28 753.68-25.28L753.68-25.28Z M779.12-21.20L782.88-21.20L773.60 0L769.68 0L760.40-21.20L764.40-21.20L771.68-4.20L779.12-21.20Z M787.68 0L787.68-21.20L791.52-21.20L791.52 0L787.68 0ZM789.60-25.28Q788.48-25.28 787.74-26Q787.00-26.72 787.00-27.76L787.00-27.76Q787.00-28.80 787.74-29.54Q788.48-30.28 789.60-30.28L789.60-30.28Q790.72-30.28 791.46-29.58Q792.20-28.88 792.20-27.84L792.20-27.84Q792.20-26.76 791.46-26.02Q790.72-25.28 789.60-25.28L789.60-25.28Z M811.36-21.40Q815.40-21.40 817.78-19.06Q820.16-16.72 820.16-12.20L820.16-12.20L820.16 0L816.32 0L816.32-11.76Q816.32-14.84 814.84-16.40Q813.36-17.96 810.60-17.96L810.60-17.96Q807.48-17.96 805.68-16.14Q803.88-14.32 803.88-10.92L803.88-10.92L803.88 0L800.04 0L800.04-21.20L803.72-21.20L803.72-18Q804.88-19.64 806.86-20.52Q808.84-21.40 811.36-21.40L811.36-21.40Z M845.24-21.20L848.88-21.20L848.88-2.88Q848.88 2.68 846.12 5.34Q843.36 8 837.88 8L837.88 8Q834.88 8 832.16 7.18Q829.44 6.36 827.76 4.84L827.76 4.84L829.60 1.88Q831.08 3.16 833.26 3.90Q835.44 4.64 837.76 4.64L837.76 4.64Q841.48 4.64 843.26 2.88Q845.04 1.12 845.04-2.48L845.04-2.48L845.04-4.16Q843.68-2.52 841.70-1.70Q839.72-0.88 837.40-0.88L837.40-0.88Q834.36-0.88 831.90-2.18Q829.44-3.48 828.04-5.82Q826.64-8.16 826.64-11.16L826.64-11.16Q826.64-14.16 828.04-16.50Q829.44-18.84 831.90-20.12Q834.36-21.40 837.40-21.40L837.40-21.40Q839.80-21.40 841.86-20.52Q843.92-19.64 845.24-17.92L845.24-17.92L845.24-21.20ZM837.84-4.24Q839.92-4.24 841.58-5.12Q843.24-6 844.18-7.58Q845.12-9.16 845.12-11.16L845.12-11.16Q845.12-14.24 843.08-16.14Q841.04-18.04 837.84-18.04L837.84-18.04Q834.60-18.04 832.56-16.14Q830.52-14.24 830.52-11.16L830.52-11.16Q830.52-9.16 831.46-7.58Q832.40-6 834.06-5.12Q835.72-4.24 837.84-4.24L837.84-4.24Z M858.32-15.92Q857.20-15.92 856.40-16.70Q855.60-17.48 855.60-18.68L855.60-18.68Q855.60-19.84 856.40-20.62Q857.20-21.40 858.32-21.40L858.32-21.40Q859.44-21.40 860.20-20.64Q860.96-19.88 860.96-18.68L860.96-18.68Q860.96-17.48 860.18-16.70Q859.40-15.92 858.32-15.92L858.32-15.92ZM858.36-5.24Q859.48-5.24 860.22-4.46Q860.96-3.68 860.96-2.52L860.96-2.52Q860.96-1.92 860.82-1.36Q860.68-0.80 860.28 0.36L860.28 0.36L858.40 5.92L855.88 5.92L857.36-0.04Q856.60-0.32 856.14-0.98Q855.68-1.64 855.68-2.52L855.68-2.52Q855.68-3.72 856.44-4.48Q857.20-5.24 858.36-5.24L858.36-5.24Z M885.72 0.24Q883.12 0.24 880.72-0.46Q878.32-1.16 876.96-2.24L876.96-2.24L878.56-5.28Q879.96-4.28 881.96-3.68Q883.96-3.08 886.00-3.08L886.00-3.08Q891.04-3.08 891.04-5.96L891.04-5.96Q891.04-6.92 890.36-7.48Q889.68-8.04 888.66-8.30Q887.64-8.56 885.76-8.88L885.76-8.88Q883.20-9.28 881.58-9.80Q879.96-10.32 878.80-11.56Q877.64-12.80 877.64-15.04L877.64-15.04Q877.64-17.92 880.04-19.66Q882.44-21.40 886.48-21.40L886.48-21.40Q888.60-21.40 890.72-20.88Q892.84-20.36 894.20-19.48L894.20-19.48L892.56-16.44Q889.96-18.12 886.44-18.12L886.44-18.12Q884.00-18.12 882.72-17.32Q881.44-16.52 881.44-15.20L881.44-15.20Q881.44-14.16 882.16-13.56Q882.88-12.96 883.94-12.68Q885.00-12.40 886.92-12.04L886.92-12.04Q889.48-11.60 891.06-11.10Q892.64-10.60 893.76-9.40Q894.88-8.20 894.88-6.04L894.88-6.04Q894.88-3.16 892.42-1.46Q889.96 0.24 885.72 0.24L885.72 0.24Z M920.04-10.48Q920.04-10.04 919.96-9.32L919.96-9.32L902.76-9.32Q903.12-6.52 905.22-4.82Q907.32-3.12 910.44-3.12L910.44-3.12Q914.24-3.12 916.56-5.68L916.56-5.68L918.68-3.20Q917.24-1.52 915.10-0.64Q912.96 0.24 910.32 0.24L910.32 0.24Q906.96 0.24 904.36-1.14Q901.76-2.52 900.34-5Q898.92-7.48 898.92-10.60L898.92-10.60Q898.92-13.68 900.30-16.16Q901.68-18.64 904.10-20.02Q906.52-21.40 909.56-21.40L909.56-21.40Q912.60-21.40 914.98-20.02Q917.36-18.64 918.70-16.16Q920.04-13.68 920.04-10.48L920.04-10.48ZM909.56-18.16Q906.80-18.16 904.94-16.48Q903.08-14.80 902.76-12.08L902.76-12.08L916.36-12.08Q916.04-14.76 914.18-16.46Q912.32-18.16 909.56-18.16L909.56-18.16Z M926.56 0L926.56-29.68L930.40-29.68L930.40 0L926.56 0Z M946.68-26.76Q943.24-26.76 943.24-23.04L943.24-23.04L943.24-21.20L949.40-21.20L949.40-18.04L943.32-18.04L943.32 0L939.48 0L939.48-18.04L935.88-18.04L935.88-21.20L939.48-21.20L939.48-23.08Q939.48-26.24 941.32-28.08Q943.16-29.92 946.48-29.92L946.48-29.92Q947.76-29.92 948.88-29.60Q950.00-29.28 950.80-28.68L950.80-28.68L949.64-25.76Q948.32-26.76 946.68-26.76L946.68-26.76Z M952.48-9.32L952.48-12.64L963.24-12.64L963.24-9.32L952.48-9.32Z M989.52-10.48Q989.52-10.04 989.44-9.32L989.44-9.32L972.24-9.32Q972.60-6.52 974.70-4.82Q976.80-3.12 979.92-3.12L979.92-3.12Q983.72-3.12 986.04-5.68L986.04-5.68L988.16-3.20Q986.72-1.52 984.58-0.64Q982.44 0.24 979.80 0.24L979.80 0.24Q976.44 0.24 973.84-1.14Q971.24-2.52 969.82-5Q968.40-7.48 968.40-10.60L968.40-10.60Q968.40-13.68 969.78-16.16Q971.16-18.64 973.58-20.02Q976.00-21.40 979.04-21.40L979.04-21.40Q982.08-21.40 984.46-20.02Q986.84-18.64 988.18-16.16Q989.52-13.68 989.52-10.48L989.52-10.48ZM979.04-18.16Q976.28-18.16 974.42-16.48Q972.56-14.80 972.24-12.08L972.24-12.08L985.84-12.08Q985.52-14.76 983.66-16.46Q981.80-18.16 979.04-18.16L979.04-18.16Z M1012.20-29.68L1016.04-29.68L1016.04 0L1012.36 0L1012.36-3.36Q1011.08-1.60 1009.12-0.68Q1007.16 0.24 1004.80 0.24L1004.80 0.24Q1001.72 0.24 999.28-1.12Q996.84-2.48 995.46-4.94Q994.08-7.40 994.08-10.60L994.08-10.60Q994.08-13.80 995.46-16.24Q996.84-18.68 999.28-20.04Q1001.72-21.40 1004.80-21.40L1004.80-21.40Q1007.08-21.40 1009.00-20.54Q1010.92-19.68 1012.20-18L1012.20-18L1012.20-29.68ZM1005.12-3.12Q1007.12-3.12 1008.76-4.06Q1010.40-5 1011.32-6.70Q1012.24-8.40 1012.24-10.60L1012.24-10.60Q1012.24-12.80 1011.32-14.50Q1010.40-16.20 1008.76-17.12Q1007.12-18.04 1005.12-18.04L1005.12-18.04Q1003.08-18.04 1001.46-17.12Q999.84-16.20 998.90-14.50Q997.96-12.80 997.96-10.60L997.96-10.60Q997.96-8.40 998.90-6.70Q999.84-5 1001.46-4.06Q1003.08-3.12 1005.12-3.12L1005.12-3.12Z M1040.44-21.20L1044.28-21.20L1044.28 0L1040.64 0L1040.64-3.20Q1039.48-1.56 1037.58-0.66Q1035.68 0.24 1033.44 0.24L1033.44 0.24Q1029.20 0.24 1026.76-2.10Q1024.32-4.44 1024.32-9L1024.32-9L1024.32-21.20L1028.16-21.20L1028.16-9.44Q1028.16-6.36 1029.64-4.78Q1031.12-3.20 1033.88-3.20L1033.88-3.20Q1036.92-3.20 1038.68-5.04Q1040.44-6.88 1040.44-10.24L1040.44-10.24L1040.44-21.20Z M1062.04 0.24Q1058.80 0.24 1056.26-1.16Q1053.72-2.56 1052.28-5.02Q1050.84-7.48 1050.84-10.60L1050.84-10.60Q1050.84-13.72 1052.28-16.18Q1053.72-18.64 1056.26-20.02Q1058.80-21.40 1062.04-21.40L1062.04-21.40Q1064.92-21.40 1067.18-20.24Q1069.44-19.08 1070.68-16.88L1070.68-16.88L1067.76-15Q1066.76-16.52 1065.28-17.28Q1063.80-18.04 1062.00-18.04L1062.00-18.04Q1059.92-18.04 1058.26-17.12Q1056.60-16.20 1055.66-14.50Q1054.72-12.80 1054.72-10.60L1054.72-10.60Q1054.72-8.36 1055.66-6.66Q1056.60-4.96 1058.26-4.04Q1059.92-3.12 1062.00-3.12L1062.00-3.12Q1063.80-3.12 1065.28-3.88Q1066.76-4.64 1067.76-6.16L1067.76-6.16L1070.68-4.32Q1069.44-2.12 1067.18-0.94Q1064.92 0.24 1062.04 0.24L1062.04 0.24Z"/></g>
</svg>
</g><g opacity="1" transform="rotate(0 1214.8694 906.272)">
<svg width="395.9229" height="90" x="1214.8694" y="906.272" version="1.1" preserveAspectRatio="none" viewBox="2.28 -28 123.12 28">
  <g transform="matrix(1 0 0 1 0 0)" class="companyName"><path id="id-D6z1nYkh5" d="M2.28 0L2.28-28L11.72-28L11.72 0L2.28 0Z M34.68-28L43.88-28L43.88 0L36.12 0L25.48-12.72L25.48 0L16.28 0L16.28-28L24.04-28L34.68-15.28L34.68-28Z M48.44 0L48.44-28L62.24-28Q66.92-28 70.50-26.30Q74.08-24.60 76.06-21.44Q78.04-18.28 78.04-14L78.04-14Q78.04-9.72 76.06-6.56Q74.08-3.40 70.50-1.70Q66.92 0 62.24 0L62.24 0L48.44 0ZM57.88-7.36L61.84-7.36Q64.88-7.36 66.70-9.10Q68.52-10.84 68.52-14L68.52-14Q68.52-17.16 66.70-18.90Q64.88-20.64 61.84-20.64L61.84-20.64L57.88-20.64L57.88-7.36Z M81.48 0L81.48-28L90.92-28L90.92 0L81.48 0Z M116.12-28L125.40-28L113.56 0L104.28 0L92.44-28L102.60-28L109.28-11.64L116.12-28Z"/></g>
</svg>
</g></svg></svg>